<!-- Placeholder hero image: replace with the Super Carry CNG desktop banner photograph (1512 x 615). -->
<svg xmlns="http://www.w3.org/2000/svg" viewBox="0 0 1512 615"><defs><linearGradient id="b" x2="0" y2="1"><stop stop-color="#cbdde2"/><stop offset="1" stop-color="#b9c4bc"/></linearGradient></defs><rect width="1512" height="615" fill="url(#b)"/><circle cx="1180" cy="112" r="65" fill="#fff4d1"/><path d="M0 310q270-110 530-6t430-8 552 0v319H0z" fill="#93a8a3"/><path d="M0 442q310-78 564-20t407 1 541-9v201H0z" fill="#65736f"/><path d="M0 523h1512" stroke="#e8e5dc" stroke-width="7" stroke-dasharray="70 55"/><g transform="translate(0,-7)"><path d="M535 273h310l104 86 152 37q28 8 38 39l14 50H458v-89q0-41 29-73z" fill="#f3f7ee" stroke="#334047" stroke-width="7"/><path d="m824 283 3 114H596l25-105q5-9 15-9z" fill="#284450" stroke="#334047" stroke-width="6"/><path d="m842 285 94 79-92 31z" fill="#526a70" stroke="#334047" stroke-width="6"/><path d="M962 381h92l93 29q24 8 30 37l6 28H933z" fill="#fff" stroke="#334047" stroke-width="5"/><path d="M477 393h75v30h-79m409-42h18m78 39h59" fill="none" stroke="#3b464a" stroke-width="7"/><rect x="469" y="428" width="49" height="18" rx="6" fill="#ffe7a0"/><circle cx="618" cy="485" r="61" fill="#202528" stroke="#334047" stroke-width="6"/><circle cx="618" cy="485" r="31" fill="#bbc1c1" stroke="#334047" stroke-width="5"/><circle cx="1050" cy="485" r="61" fill="#202528" stroke="#334047" stroke-width="6"/><circle cx="1050" cy="485" r="31" fill="#bbc1c1" stroke="#334047" stroke-width="5"/></g><text x="1090" y="302" font-family="Arial" font-weight="bold" font-size="17" fill="#69852d">S-CNG</text></svg>
